<?xml version="1.0" encoding="utf-8"?>
<!-- Generator: Adobe Illustrator 25.2.1, SVG Export Plug-In . SVG Version: 6.00 Build 0)  -->
<svg version="1.1" id="Capa_1" xmlns="http://www.w3.org/2000/svg" xmlns:xlink="http://www.w3.org/1999/xlink" x="0px" y="0px"
	 viewBox="0 0 300 340" style="enable-background:new 0 0 300 340;" xml:space="preserve">
<style type="text/css">
	.st0{fill:#330000;}
	.st1{fill:#FF9A00;}
</style>
<g id="vlpa">
	<g id="vlpb">
		<g id="vlpc">
			<g id="vlpd">
				<path class="st0" d="M53.2,23.9h193.6c29.3,0,53.1,23.7,53.1,53.1V263c0,29.3-23.7,53.1-53.1,53.1H53.2
					c-29.3,0-53.1-23.7-53.1-53.1V77C0.1,47.6,23.9,23.9,53.2,23.9z"/>
			</g>
		</g>
	</g>
	<g id="vlpe">
		<g id="vlpf">
			<path class="st1" d="M145,198.7H98.5l-9.5,29.3c-0.2,1.1-1.2,1.9-2.4,1.7H63.2c-1.4,0-1.7-0.7-1.4-2.2L102,111.8
				c0.4-1.2,0.7-2.6,1.2-4.1c0.5-2.6,0.7-5.4,0.7-8.1c-0.1-0.6,0.4-1.2,1-1.4h0.4h32c1,0,1.5,0.4,1.6,1l45.6,128.6
				c0.4,1.4,0,2-1.2,2h-26.1c-0.9,0.1-1.7-0.5-2-1.4L145,198.7L145,198.7z M105.8,173.4h31.7c-0.7-2.6-1.7-5.7-2.9-9
				c-1.1-3.4-2.2-7-3.4-10.7c-1.2-3.9-2.4-7.6-3.6-11.5s-2.4-7.5-3.4-11.1c-1-3.5-1.9-6.7-2.7-9.7h-0.2c-1.1,5.4-2.5,10.7-4.2,16.1
				c-1.9,6-3.7,12.2-5.7,18.5C109.5,162.3,107.7,168.1,105.8,173.4z"/>
			<path class="st1" d="M212.4,120c-4.1,0.1-8.1-1.5-11.1-4.4c-2.9-3.1-4.4-7.2-4.2-11.5c-0.1-4.2,1.5-8.2,4.5-11.1
				c3-2.9,7-4.4,11.1-4.4c4.9,0,8.6,1.5,11.4,4.4c2.7,3,4.2,7,4.1,11.1c0.1,4.2-1.4,8.4-4.4,11.5C220.9,118.7,216.7,120.3,212.4,120
				L212.4,120z M198.5,228.4v-96.2c0-1.2,0.5-1.7,1.6-1.7h24.7c1.1,0,1.6,0.6,1.6,1.7v96.2c0,1.4-0.5,2-1.6,2h-24.5
				C199.1,230.4,198.5,229.7,198.5,228.4z"/>
		</g>
	</g>
</g>
</svg>
