<?xml version="1.0" encoding="utf-8"?>
<!-- Generator: Adobe Illustrator 25.2.1, SVG Export Plug-In . SVG Version: 6.00 Build 0)  -->
<svg version="1.1" id="Capa_1" xmlns="http://www.w3.org/2000/svg" xmlns:xlink="http://www.w3.org/1999/xlink" x="0px" y="0px"
	 viewBox="0 0 300 340" style="enable-background:new 0 0 300 340;" xml:space="preserve">
<style type="text/css">
	.st0{fill:#4A8CAC;}
	.st1{fill:#346A86;}
	.st2{fill:#FDFEFE;}
</style>
<path class="st0" d="M141.4,20h17.5c5.3,0.5,10.5,0.5,15.8,1c9.3,1.1,18.4,3.3,27.2,6.7c13.5,4.8,26.3,11.6,37.8,20.2
	c8.2,6,15.7,12.8,22.5,20.3c9.5,10.4,17.4,22.1,23.7,34.6c5.5,11.1,9.6,22.8,12.2,35c0.9,5.7,1.5,11.4,1.6,17.1
	c0,0.9-0.3,1.9,0.3,2.8v25.6c-0.2,0.2-0.5,0.3-0.8,0.2c-0.8-0.4-1.2-1.3-1.1-2.2c0-2.7-1.2-5.2-3.3-6.8
	c-29.8-28.7-58.6-58.3-88-87.5c-1.7-1.4-3.1-3-4.2-4.9c-0.8-1.5-2.7-1.1-3.7-2.1c-3.1-4-8.1-6.2-13.1-5.9c-23.3,0-46.6,0.2-69.8,0
	c-7.8-0.2-14.4,5.9-14.7,13.8c0,0.3,0,0.7,0,1c0.2,57.4,0.2,114.8,0,172.2c-0.4,5.2,1.6,10.3,5.6,13.8c1.5,2.3,3.3,4.3,5.4,5.9
	c11.7,11.7,23.4,23.3,35,35.1c1,1.1,3.2,2,1.5,4.2c-10.9,0.5-21.9-0.3-32.6-2.4c-8.7-2-17.3-4.8-25.5-8.4
	c-13.5-5.8-26.2-13.6-37.5-23c-9.9-8.3-18.7-17.9-26.2-28.4c-8.7-12.2-15.5-25.5-20.3-39.7c-3.9-11-6-22.5-6.4-34.2
	C-0.2,171.4,0,158.9,1,146.5c0.7-6.1,1.9-12.1,3.7-18c4.9-17.4,12.9-33.8,23.7-48.3c18.1-24.5,43.1-43,71.9-53.1
	c10.3-3.9,21.2-6.1,32.2-6.6C135.4,20.6,138.4,20.4,141.4,20z"/>
<path class="st1" d="M299.5,183.3c-0.7,10-2.6,19.9-5.6,29.5c-17.5,58.5-68.7,100.5-129.5,106.4c-5.1,0.4-10.3,0.6-15.5,0.3
	l-30.9-31l-10.4-10.3c-0.7-0.5-1.2-1.3-1.4-2.1c0.7-0.5,1.6-0.7,2.4-0.3c3.3,0.8,6.7,1.1,10.1,0.9h66.9c2.5,0.2,5-0.3,7.3-1.2
	c4.3-2.1,7.1-6.4,7.3-11.1c0.1-1.6,0-3.1,0-4.7V91.2c0.1-2.9-0.2-5.9-0.8-8.7c-0.3-1,0-2.1,0.8-2.7c1.5-0.4,2,1,2.7,1.7
	c24.9,24.8,49.7,49.5,74.5,74.3c5.5,5.5,11,11,16.8,16.2C297.8,175.2,300.3,178.4,299.5,183.3z"/>
<path class="st2" d="M200.4,79.8c1.3,2.8,1.9,5.7,1.8,8.8c0,57.9,0,115.9,0,173.8c0,10.1-5.7,15.8-15.8,15.8c-23.7,0-47.4,0-71.1,0
	c-3.1,0.1-6.2-0.6-9-2.1c-5.2-3.9-6.7-9.2-6.7-15.6c0.1-57.3,0.1-114.5,0-171.7c-0.4-5.3,2-10.3,6.3-13.4c2.3-1.6,5.1-2.5,7.9-2.4
	c24.7,0,49.3,0,74,0C193,72.9,197.6,75.5,200.4,79.8z"/>
<path class="st0" d="M109.6,235.8v-127h82.7v127H109.6z"/>
<path class="st0" d="M151,268.2c-5,0-9-3.9-9.2-8.8c-0.1-5.1,3.9-9.3,8.9-9.4c5.1-0.1,9.3,3.9,9.4,8.9l0,0c0.1,5-3.8,9.1-8.8,9.3
	C151.2,268.2,151.1,268.2,151,268.2z"/>
<path class="st0" d="M151,89.4h9.3c1.3,0,2.2,0.2,2.2,1.9c0,1.7-0.7,2.2-2.3,2.2c-6.3,0-12.6,0-18.9,0c-1.4,0-2.1-0.6-2.1-2.1
	s0.7-2,2.2-2C144.6,89.5,147.8,89.4,151,89.4z"/>
</svg>
