<?xml version="1.0" encoding="utf-8"?>
<!-- Generator: Adobe Illustrator 25.2.1, SVG Export Plug-In . SVG Version: 6.00 Build 0)  -->
<svg version="1.1" id="Layer_1" xmlns="http://www.w3.org/2000/svg" xmlns:xlink="http://www.w3.org/1999/xlink" x="0px" y="0px"
	 viewBox="0 0 300 340" style="enable-background:new 0 0 300 340;" xml:space="preserve">
<style type="text/css">
	.st0{fill:#0ACF83;}
	.st1{fill:#A259FF;}
	.st2{fill:#F24E1E;}
	.st3{fill:#FF7262;}
	.st4{fill:#1ABCFE;}
</style>
<path id="path0_fill" class="st0" d="M90,340c33.1,0,60-25.4,60-56.7v-56.7H90c-33.1,0-60,25.4-60,56.7S56.9,340,90,340z"/>
<path id="path1_fill" class="st1" d="M30,170c0-31.3,26.9-56.7,60-56.7h60v113.3H90C56.9,226.7,30,201.3,30,170z"/>
<path id="path1_fill_1_" class="st2" d="M30,56.7C30,25.4,56.9,0,90,0h60v113.3H90C56.9,113.3,30,87.9,30,56.7z"/>
<path id="path2_fill" class="st3" d="M150,0h60c33.1,0,60,25.4,60,56.7s-26.9,56.7-60,56.7h-60V0z"/>
<path id="path3_fill" class="st4" d="M270,170c0,31.3-26.9,56.7-60,56.7s-60-25.4-60-56.7s26.9-56.7,60-56.7S270,138.7,270,170z"/>
</svg>
