<?xml version="1.0" encoding="utf-8"?>
<!-- Generator: Adobe Illustrator 25.2.1, SVG Export Plug-In . SVG Version: 6.00 Build 0)  -->
<svg version="1.1" id="Capa_1" xmlns="http://www.w3.org/2000/svg" xmlns:xlink="http://www.w3.org/1999/xlink" x="0px" y="0px"
	 viewBox="0 0 300 340" style="enable-background:new 0 0 300 340;" xml:space="preserve">
<style type="text/css">
	.st0{fill:#E44D26;}
	.st1{fill:#F16529;}
	.st2{fill:#FFFFFF;}
	.st3{fill:#EBEBEB;}
</style>
<path class="st0" d="M272.7,306.1l-122.9,34l-122.5-34L0,0h300"/>
<path class="st1" d="M272.6,25H150v289.1l99.3-27.5"/>
<path class="st2" d="M244,62.6h-94.1v37.5h90.7 M231.1,138.6H150v136.6l71.5-21.4 M150,176.1c0,0,45.6,0,46.2,0l-4.3,48.7
	c-14,3.8-27.9,7.5-41.9,11.3V176.1z"/>
<path class="st3" d="M65.9,176.1h84v-37.5h-49.7l-3.4-38.4H150V62.6H55.8 M72.9,253.8l77,21.3h0.1v-39h-0.1L108,224.8l-2.7-30H67.6"
	/>
</svg>
