<svg id="logo-php" xmlns="http://www.w3.org/2000/svg" xmlns:xlink="http://www.w3.org/1999/xlink" viewBox="0 0 300 340">
  <defs>
    <style>
      .ring-gradient {
        fill: url(#php-gradient);
      }
      .circle-filled {
        fill: #777bb3;
      }
      .letter-black {
        fill: #000;
      }
      .letter-white {
        fill: #fff;
      }
    </style>
    <radialGradient id="php-gradient" cx="-99.66" cy="420.92" r="0.42" gradientTransform="matrix(472.73, 0, 0, -898.66, 47200.84, 378342.24)" gradientUnits="userSpaceOnUse">
      <stop offset="0" stop-color="#aeb2d5"/>
      <stop offset="0.3" stop-color="#aeb2d5"/>
      <stop offset="0.75" stop-color="#484c89"/>
      <stop offset="1" stop-color="#484c89"/>
    </radialGradient>
  </defs>
  <path id="outer-ring" class="ring-gradient" d="M0,170A150,150,0,0,0,150,320h0A150,150,0,0,0,300,170h0A150,150,0,0,0,150,20h0A150,150,0,0,0,0,170"/>
  <path id="inner-circle" class="circle-filled" d="M150,315A145,145,0,1,0,5,170,145,145,0,0,0,150,315"/>
  <path id="letter-p1-black" class="letter-black" d="M68.06,187.32c7.59,0,13.26-1.41,16.85-4.17s6-7.47,7.29-14.07c1.2-6.18.74-10.49-1.36-12.81s-6.78-3.58-13.78-3.58H64.92l-6.73,34.63ZM28.35,230a1.91,1.91,0,0,1-1.46-.68,1.89,1.89,0,0,1-.39-1.57L44.33,136a1.89,1.89,0,0,1,1.86-1.52H84.63c12.08,0,21.07,3.28,26.72,9.75s7.44,15.59,5.22,27a41.72,41.72,0,0,1-13.13,23.51,37.22,37.22,0,0,1-14,8.39c-5,1.64-11.51,2.47-19.23,2.47H54.64l-4.45,22.87A1.88,1.88,0,0,1,48.34,230Z"/>
  <path id="letter-p1-white" class="letter-white" d="M66.48,154.57H77.06c8.45,0,11.38,1.86,12.38,3,1.66,1.84,2,5.71.91,11.19-1.2,6.14-3.42,10.49-6.59,12.94s-8.53,3.77-15.7,3.77H60.48Zm18.15-22H46.19a3.77,3.77,0,0,0-3.71,3.05L24.64,227.36a3.83,3.83,0,0,0,.79,3.13,3.79,3.79,0,0,0,2.92,1.37h20a3.78,3.78,0,0,0,3.71-3.05l4.15-21.35h14c7.92,0,14.59-.86,19.82-2.56a39.24,39.24,0,0,0,14.7-8.81,43.57,43.57,0,0,0,13.69-24.53c2.34-12,.44-21.66-5.64-28.63s-15.5-10.39-28.15-10.39M55.9,189.2H68.06q12.09,0,18-4.55t8-15.21q2-10.23-1.8-14.44t-15.19-4.2H63.36L55.9,189.2m28.73-52.89q17.34,0,25.3,9.11t4.79,25.42a39.88,39.88,0,0,1-12.56,22.48,35.14,35.14,0,0,1-13.3,8q-7.32,2.38-18.65,2.39H53.08l-4.74,24.39h-20l17.84-91.77H84.63"/>
  <path id="letter-h-black" class="letter-black" d="M162.41,205.57a1.88,1.88,0,0,1-1.86-2.24l7.89-40.61c.75-3.86.57-6.63-.52-7.8-.66-.72-2.66-1.92-8.57-1.92H145.06l-9.92,51.05a1.89,1.89,0,0,1-1.85,1.52H113.45a1.87,1.87,0,0,1-1.85-2.24l17.83-91.77a1.9,1.9,0,0,1,1.86-1.53h19.83a1.9,1.9,0,0,1,1.46.68,1.93,1.93,0,0,1,.4,1.57l-4.31,22.15h15.38c11.71,0,19.66,2.06,24.28,6.31s6.19,11.26,4.38,20.6l-8.3,42.71a1.89,1.89,0,0,1-1.85,1.52Z"/>
  <path id="letter-h-white" class="letter-white" d="M151.12,108.14H131.29a3.78,3.78,0,0,0-3.71,3L109.74,203a3.78,3.78,0,0,0,3.71,4.49h19.84a3.77,3.77,0,0,0,3.7-3.05l9.63-49.52h12.73c5.9,0,7.14,1.26,7.19,1.31.35.39.82,2.17.05,6.16L158.7,203a3.77,3.77,0,0,0,3.71,4.49h20.15a3.77,3.77,0,0,0,3.7-3.05l8.3-42.71c1.95-10,.28-17.54-4.95-22.35-5-4.59-13.35-6.81-25.56-6.81H151l3.87-19.9a3.77,3.77,0,0,0-3.71-4.5m0,3.78-4.74,24.39h17.67q16.68,0,23,5.82T190.85,161l-8.29,42.71H162.41l7.89-40.61q1.33-6.93-1-9.45t-10-2.52H143.5l-10.21,52.58H113.45l17.84-91.77h19.83"/>
  <path id="letter-p2-black" class="letter-black" d="M224.09,187.32c7.6,0,13.27-1.41,16.86-4.17s6-7.47,7.28-14.07c1.2-6.18.75-10.49-1.35-12.81s-6.79-3.58-13.79-3.58H221l-6.73,34.63ZM184.38,230a1.89,1.89,0,0,1-1.85-2.25L200.37,136a1.89,1.89,0,0,1,1.85-1.52h38.44c12.08,0,21.08,3.28,26.73,9.75s7.44,15.59,5.22,27a41.88,41.88,0,0,1-13.13,23.51,37.33,37.33,0,0,1-14,8.39c-5,1.64-11.51,2.47-19.23,2.47H210.67l-4.44,22.87a1.88,1.88,0,0,1-1.85,1.53Z"/>
  <path id="letter-p2-white" class="letter-white" d="M222.51,154.57h10.58c8.45,0,11.39,1.86,12.39,3,1.65,1.84,2,5.71.9,11.19-1.2,6.14-3.41,10.49-6.59,12.94s-8.53,3.77-15.7,3.77h-7.58Zm18.15-22H202.22a3.78,3.78,0,0,0-3.71,3.05l-17.83,91.77a3.77,3.77,0,0,0,3.7,4.5h20a3.77,3.77,0,0,0,3.7-3.05l4.15-21.35h14c7.92,0,14.59-.86,19.82-2.56a39.2,39.2,0,0,0,14.71-8.81,43.72,43.72,0,0,0,13.69-24.53c2.34-12,.44-21.66-5.65-28.63s-15.5-10.39-28.15-10.39M211.93,189.2h12.16q12.09,0,18-4.55t8-15.21q2-10.23-1.81-14.44t-15.19-4.2H219.4l-7.47,38.4m28.73-52.89q17.35,0,25.31,9.11t4.78,25.42a39.94,39.94,0,0,1-12.55,22.48,35.17,35.17,0,0,1-13.31,8q-7.32,2.38-18.65,2.39H209.12l-4.74,24.39h-20l17.84-91.77h38.44"/>
</svg>
