<?xml version="1.0" encoding="utf-8"?>
<!-- Generator: Adobe Illustrator 25.2.1, SVG Export Plug-In . SVG Version: 6.00 Build 0)  -->
<svg version="1.1" id="Capa_1" xmlns="http://www.w3.org/2000/svg" xmlns:xlink="http://www.w3.org/1999/xlink" x="0px" y="0px"
	 viewBox="0 0 300 340" style="enable-background:new 0 0 300 340;" xml:space="preserve">
<style type="text/css">
	.st0{fill:#00546B;}
</style>
<path class="st0" d="M276.3,252c-16.3-0.4-29,1.2-39.6,5.8c-3.1,1.2-8,1.2-8.4,5.2c1.6,1.7,1.8,4.4,3.3,6.7
	c2.5,4.2,6.7,9.8,10.6,12.7c4.3,3.3,8.6,6.6,13.1,9.6c8,5,16.9,7.9,24.7,12.9c4.5,2.9,9,6.7,13.5,9.8c2.2,1.7,3.7,4.4,6.5,5.4v-0.6
	c-1.4-1.9-1.8-4.6-3.3-6.7c-2-2.1-4.1-3.9-6.1-6c-5.9-8.1-13.3-15.2-21.2-21c-6.5-4.6-20.8-10.8-23.5-18.5c0,0-0.2-0.2-0.4-0.4
	c4.5-0.4,9.8-2.1,14.1-3.3c6.9-1.9,13.3-1.5,20.4-3.3c3.3-0.8,6.5-1.9,9.8-2.9v-1.9c-3.7-3.7-6.3-8.7-10.2-12.3
	c-10.4-9.1-21.8-18.1-33.7-25.6c-6.3-4.2-14.5-6.9-21.2-10.4c-2.4-1.2-6.5-1.9-8-3.9c-3.7-4.6-5.7-10.6-8.4-16
	c-5.9-11.4-11.6-24.1-16.7-36.2c-3.7-8.1-5.9-16.2-10.4-23.7c-21-35.3-43.9-56.7-79-77.7c-7.6-4.4-16.5-6.2-26.1-8.5
	c-5.1-0.2-10.2-0.6-15.3-0.8c-3.3-1.5-6.5-5.4-9.4-7.3C39.9,25.5,9.9,9.3,1.3,30.7c-5.5,13.5,8.2,26.8,12.9,33.7
	c3.5,4.8,8,10.2,10.4,15.6c1.4,3.5,1.8,7.3,3.3,11c3.3,9.1,6.3,19.3,10.6,27.9c2.2,4.4,4.7,8.9,7.5,12.9c1.6,2.3,4.5,3.3,5.1,7.1
	c-2.9,4.2-3.1,10.4-4.7,15.6c-7.3,23.5-4.5,52.6,5.9,69.8c3.3,5.2,11,16.6,21.4,12.3c9.2-3.7,7.1-15.6,9.8-26
	c0.6-2.5,0.2-4.2,1.4-5.8v0.4c2.9,5.8,5.7,11.4,8.4,17.3c6.3,10.2,17.3,20.8,26.5,27.9c4.9,3.7,8.8,10.2,14.9,12.5V262h-0.4
	c-1.2-1.9-3.1-2.7-4.7-4.2c-3.7-3.7-7.8-8.3-10.6-12.5c-8.6-11.6-16.1-24.5-22.9-37.8c-3.3-6.4-6.1-13.5-8.8-20
	c-1.2-2.5-1.2-6.2-3.3-7.5c-3.1,4.6-7.5,8.5-9.8,14.1c-3.9,8.9-4.3,20-5.7,31.4c-0.8,0.2-0.4,0-0.8,0.4c-6.5-1.7-8.8-8.5-11.2-14.3
	c-6.1-14.8-7.1-38.5-1.8-55.5c1.4-4.4,7.6-18.1,5.1-22.2c-1.2-3.9-5.3-6.2-7.6-9.4c-2.7-3.9-5.5-8.9-7.3-13.3
	c-4.9-11.6-7.3-24.5-12.7-36.2c-2.4-5.4-6.7-11-10.2-16c-3.9-5.6-8.2-9.6-11.2-16.2c-1-2.3-2.4-6-0.8-8.5c0.4-1.7,1.2-2.3,2.9-2.7
	c2.7-2.3,10.2,0.6,12.9,1.9c7.6,3.1,13.9,6,20.2,10.4c2.9,2.1,5.9,6,9.6,7.1h4.3c6.5,1.5,13.9,0.4,20,2.3
	c10.8,3.5,20.6,8.7,29.4,14.3c26.7,17.3,48.8,41.8,63.7,71.1c2.4,4.8,3.5,9.1,5.7,14.1c4.3,10.2,9.6,20.6,13.9,30.6
	c4.3,9.8,8.4,19.7,14.5,27.9c3.1,4.4,15.3,6.7,20.8,8.9c4.1,1.9,10.4,3.5,14.1,5.8c6.9,4.4,13.9,9.4,20.4,14.1
	C265.5,242.7,275.7,247.9,276.3,252L276.3,252z"/>
<path class="st0" d="M68.2,71.4c-3.5,0-5.9,0.4-8.4,1v0.4h0.4c1.6,3.3,4.5,5.6,6.5,8.5c1.6,3.3,3.1,6.7,4.7,10
	c0.2-0.2,0.4-0.4,0.4-0.4c2.9-2.1,4.3-5.4,4.3-10.4c-1.2-1.5-1.4-2.9-2.4-4.4C72.5,74.1,69.8,73.1,68.2,71.4L68.2,71.4z"/>
</svg>
