<?xml version="1.0" encoding="utf-8"?>
<!-- Generator: Adobe Illustrator 25.2.1, SVG Export Plug-In . SVG Version: 6.00 Build 0)  -->
<svg version="1.1"
	 id="svg3476" inkscape:version="0.91 r13725" xmlns:cc="http://creativecommons.org/ns#" xmlns:dc="http://purl.org/dc/elements/1.1/" xmlns:inkscape="http://www.inkscape.org/namespaces/inkscape" xmlns:rdf="http://www.w3.org/1999/02/22-rdf-syntax-ns#" xmlns:sodipodi="http://sodipodi.sourceforge.net/DTD/sodipodi-0.dtd" xmlns:svg="http://www.w3.org/2000/svg"
	 xmlns="http://www.w3.org/2000/svg" xmlns:xlink="http://www.w3.org/1999/xlink" x="0px" y="0px" viewBox="0 0 300 340"
	 style="enable-background:new 0 0 300 340;" xml:space="preserve">
<style type="text/css">
	.st0{fill:#264DE4;}
	.st1{fill:#2965F1;}
	.st2{fill:#EBEBEB;}
	.st3{fill:#FFFFFF;}
</style>
<polygon id="polygon2989" class="st0" points="299.9,0 272.6,305.9 149.8,340 27.4,306 0.1,0 "/>
<polygon id="polygon2991" class="st1" points="249.1,286.4 272.5,25.1 150,25.1 150,314 "/>
<polygon id="polygon2993" class="st2" points="62.6,138.5 66,176.1 150,176.1 150,138.5 "/>
<polygon id="polygon2995" class="st2" points="150,62.6 149.9,62.6 55.9,62.6 59.3,100.1 150,100.1 "/>
<polygon id="polygon2997" class="st2" points="150,275 150,236 149.8,236 108.1,224.7 105.4,194.8 85,194.8 67.7,194.8 73,253.8 
	149.8,275 "/>
<polygon id="polygon3005" class="st3" points="196.1,176.1 191.7,224.7 149.9,236 149.9,275 226.7,253.8 227.4,247.4 236.1,148.6 
	237.1,138.5 243.9,62.6 149.9,62.6 149.9,100.1 202.8,100.1 199.4,138.5 149.9,138.5 149.9,176.1 "/>
</svg>
