<?xml version="1.0" encoding="utf-8"?>
<!-- Generator: Adobe Illustrator 25.2.1, SVG Export Plug-In . SVG Version: 6.00 Build 0)  -->
<svg version="1.1" id="Capa_1" xmlns="http://www.w3.org/2000/svg" xmlns:xlink="http://www.w3.org/1999/xlink" x="0px" y="0px"
	 viewBox="0 0 300 340" style="enable-background:new 0 0 300 340;" xml:space="preserve">
<style type="text/css">
	.st0{fill:#7CC327;}
</style>
<g id="Capa_2_1_">
	<g id="Capa_1-2">
		<path class="st0" d="M149.9,339.2c-4.6,0-9-1.2-13-3.5l-41.4-24.5c-6.2-3.5-3.2-4.7-1.1-5.4c8.3-2.9,9.9-3.5,18.7-8.5
			c1-0.5,2.2-0.4,3.1,0.3l31.8,18.9c1.2,0.7,2.6,0.7,3.8,0l124-71.6c1.2-0.7,1.9-2,1.9-3.4V98.3c0-1.4-0.7-2.7-2-3.4L151.8,23.4
			c-1.2-0.7-2.6-0.7-3.8,0L24.1,95c-1.2,0.7-2,2-1.9,3.4v143.1c0,1.4,0.7,2.7,1.9,3.3l34,19.6c18.4,9.2,29.7-1.6,29.7-12.6V110.6
			c0-2,1.6-3.6,3.6-3.6c0,0,0,0,0.1,0h15.7c2,0,3.6,1.6,3.6,3.6v141.3c0,24.6-13.4,38.7-36.7,38.7c-7.2,0-12.8,0-28.5-7.8L13,264.1
			c-8.1-4.7-13-13.3-13-22.6V98.3C0,89,4.9,80.4,13,75.7L136.9,4.1c8.1-4.4,17.9-4.4,26.1,0l124,71.7c8.1,4.7,13,13.3,13,22.6v143.1
			c0,9.3-5,17.9-13,22.6l-124,71.6C159,338,154.5,339.2,149.9,339.2z M250,198.1c0-26.8-18.1-33.9-56.2-38.9
			c-38.6-5.1-42.4-7.7-42.4-16.7c0-7.4,3.3-17.4,31.8-17.4c25.4,0,34.8,5.5,38.7,22.7c0.4,1.6,1.8,2.8,3.5,2.8h16.1
			c1,0,1.9-0.4,2.6-1.1c0.7-0.8,1-1.7,0.9-2.8c-2.5-29.6-22.1-43.4-61.9-43.4c-35.4,0-56.5,14.9-56.5,39.9c0,27.1,21,34.6,54.9,38
			c40.6,4,43.8,9.9,43.8,17.9c0,13.8-11.1,19.7-37.3,19.7c-32.8,0-40-8.3-42.4-24.6c-0.3-1.7-1.8-3-3.6-3h-16
			c-1.9,0-3.5,1.6-3.6,3.5c0,0,0,0,0,0.1c0,20.9,11.3,45.8,65.7,45.8C227.5,240.6,250,225.1,250,198.1L250,198.1z"/>
	</g>
</g>
</svg>
